<svg width="782" height="283" viewBox="0 0 782 283" fill="none" xmlns="http://www.w3.org/2000/svg">
<path d="M341.885 219.143C330.666 219.143 320.612 217.322 311.724 213.679C302.836 210.037 295.696 204.646 290.305 197.506C285.06 190.367 282.291 181.77 282 171.716H321.778C322.36 177.399 324.327 181.77 327.679 184.83C331.03 187.744 335.401 189.201 340.792 189.201C346.329 189.201 350.7 187.962 353.906 185.485C357.111 182.863 358.714 179.293 358.714 174.776C358.714 170.988 357.403 167.855 354.78 165.378C352.303 162.901 349.17 160.861 345.382 159.258C341.739 157.656 336.494 155.834 329.646 153.794C319.738 150.735 311.651 147.675 305.386 144.615C299.12 141.555 293.729 137.038 289.212 131.064C284.696 125.091 282.437 117.295 282.437 107.679C282.437 93.3995 287.61 82.2531 297.955 74.2393C308.3 66.0798 321.778 62 338.388 62C355.29 62 368.913 66.0798 379.258 74.2393C389.604 82.2531 395.14 93.4724 395.869 107.897H355.436C355.144 102.943 353.323 99.0821 349.972 96.3137C346.62 93.3995 342.322 91.9425 337.077 91.9425C332.56 91.9425 328.917 93.181 326.149 95.658C323.38 97.9893 321.996 101.413 321.996 105.93C321.996 110.884 324.327 114.745 328.99 117.514C333.653 120.282 340.938 123.269 350.846 126.475C360.754 129.826 368.768 133.031 374.887 136.091C381.153 139.151 386.544 143.595 391.061 149.423C395.577 155.252 397.836 162.755 397.836 171.935C397.836 180.677 395.577 188.618 391.061 195.758C386.689 202.897 380.278 208.58 371.827 212.805C363.377 217.031 353.396 219.143 341.885 219.143Z" fill="#333333"/>
<path d="M458.209 64.1856V217.614H420.836V64.1856H458.209Z" fill="#333333"/>
<path d="M542.774 64.1856C558.948 64.1856 573.081 67.3911 585.175 73.8021C597.268 80.2132 606.593 89.2469 613.15 100.903C619.852 112.414 623.204 125.746 623.204 140.9C623.204 155.907 619.852 169.239 613.15 180.896C606.593 192.552 597.195 201.586 584.956 207.997C572.862 214.408 558.802 217.614 542.774 217.614H485.293V64.1856H542.774ZM540.37 185.267C554.504 185.267 565.504 181.406 573.372 173.683C581.241 165.961 585.175 155.033 585.175 140.9C585.175 126.766 581.241 115.765 573.372 107.897C565.504 100.029 554.504 96.0951 540.37 96.0951H522.667V185.267H540.37Z" fill="#333333"/>
<path d="M701.571 64.1856C717.744 64.1856 731.877 67.3911 743.971 73.8021C756.064 80.2132 765.39 89.2469 771.946 100.903C778.649 112.414 782 125.746 782 140.9C782 155.907 778.649 169.239 771.946 180.896C765.39 192.552 755.992 201.586 743.752 207.997C731.659 214.408 717.598 217.614 701.571 217.614H644.09V64.1856H701.571ZM699.166 185.267C713.3 185.267 724.301 181.406 732.169 173.683C740.037 165.961 743.971 155.033 743.971 140.9C743.971 126.766 740.037 115.765 732.169 107.897C724.301 100.029 713.3 96.0951 699.166 96.0951H681.463V185.267H699.166Z" fill="#333333"/>
<circle cx="120" cy="129" r="97.5" stroke="#333333" stroke-width="5"/>
<circle cx="213" cy="25" r="22.5" stroke="#333333" stroke-width="5"/>
<circle cx="35" cy="248" r="32.5" stroke="#333333" stroke-width="5"/>
<circle cx="122" cy="129" r="47.5" stroke="#333333" stroke-width="5"/>
<circle cx="122" cy="129" r="72.5" stroke="#333333" stroke-width="5"/>
<line x1="137.365" y1="226.732" x2="168.889" y2="213.996" stroke="white" stroke-width="10"/>
<line x1="145.416" y1="173.065" x2="166.813" y2="146.642" stroke="white" stroke-width="10"/>
<line x1="53.2611" y1="157.177" x2="74.658" y2="183.6" stroke="white" stroke-width="10"/>
<line x1="168.294" y1="71.7161" x2="137.48" y2="57.347" stroke="white" stroke-width="10"/>
<line x1="34.0735" y1="80.5498" x2="56.3795" y2="54.8897" stroke="white" stroke-width="10"/>
</svg>
