<svg width="70" height="220" viewBox="0 0 70 220" fill="none" xmlns="http://www.w3.org/2000/svg">
<path d="M69.3545 193.667C69.3545 198.595 68.5545 203.011 66.9545 206.915C65.3545 210.819 62.9865 213.955 59.8505 216.323C56.7145 218.627 52.9385 219.843 48.5225 219.971V202.499C51.0185 202.243 52.9385 201.379 54.2825 199.907C55.5625 198.435 56.2025 196.515 56.2025 194.147C56.2025 191.715 55.6585 189.795 54.5705 188.387C53.4185 186.979 51.8505 186.275 49.8665 186.275C48.2025 186.275 46.8265 186.851 45.7385 188.003C44.6505 189.091 43.7545 190.467 43.0505 192.131C42.3465 193.731 41.5465 196.035 40.6505 199.043C39.3065 203.395 37.9625 206.947 36.6185 209.699C35.2745 212.451 33.2905 214.819 30.6665 216.803C28.0425 218.787 24.6185 219.779 20.3945 219.779C14.1225 219.779 9.2265 217.507 5.7065 212.963C2.1225 208.419 0.330498 202.499 0.330498 195.203C0.330498 187.779 2.1225 181.795 5.7065 177.251C9.2265 172.707 14.1545 170.275 20.4905 169.955V187.715C18.3145 187.843 16.6185 188.643 15.4025 190.115C14.1225 191.587 13.4825 193.475 13.4825 195.779C13.4825 197.763 14.0265 199.363 15.1145 200.579C16.1385 201.795 17.6425 202.403 19.6265 202.403C21.8025 202.403 23.4985 201.379 24.7145 199.331C25.9305 197.283 27.2425 194.083 28.6505 189.731C30.1225 185.379 31.5305 181.859 32.8745 179.171C34.2185 176.419 36.1705 174.051 38.7305 172.067C41.2905 170.083 44.5865 169.091 48.6185 169.091C52.4585 169.091 55.9465 170.083 59.0825 172.067C62.2185 173.987 64.7145 176.803 66.5705 180.515C68.4265 184.227 69.3545 188.611 69.3545 193.667Z" fill="black"/>
<path d="M1.2905 142.572H68.6825V158.988H1.2905L1.2905 142.572Z" fill="black"/>
<path d="M1.2905 105.428C1.2905 98.3235 2.6985 92.1155 5.51449 86.8035C8.3305 81.4915 12.2985 77.3955 17.4185 74.5155C22.4745 71.5715 28.3305 70.0995 34.9865 70.0995C41.5785 70.0995 47.4345 71.5715 52.5545 74.5155C57.6745 77.3955 61.6425 81.5235 64.4585 86.8995C67.2745 92.2115 68.6825 98.3875 68.6825 105.428V130.676H1.2905L1.2905 105.428ZM54.4745 106.484C54.4745 100.276 52.7785 95.4435 49.3865 91.9875C45.9945 88.5315 41.1945 86.8035 34.9865 86.8035C28.7785 86.8035 23.9465 88.5315 20.4905 91.9875C17.0345 95.4435 15.3065 100.276 15.3065 106.484V114.26H54.4745V106.484Z" fill="black"/>
<path d="M1.2905 35.6775C1.2905 28.5735 2.6985 22.3655 5.51449 17.0535C8.3305 11.7415 12.2985 7.6455 17.4185 4.7655C22.4745 1.8215 28.3305 0.349503 34.9865 0.349503C41.5785 0.349503 47.4345 1.8215 52.5545 4.7655C57.6745 7.6455 61.6425 11.7735 64.4585 17.1495C67.2745 22.4615 68.6825 28.6375 68.6825 35.6775V60.9255H1.2905L1.2905 35.6775ZM54.4745 36.7335C54.4745 30.5255 52.7785 25.6935 49.3865 22.2375C45.9945 18.7815 41.1945 17.0535 34.9865 17.0535C28.7785 17.0535 23.9465 18.7815 20.4905 22.2375C17.0345 25.6935 15.3065 30.5255 15.3065 36.7335V44.5095H54.4745V36.7335Z" fill="black"/>
</svg>
